# xmcd
#
# Track frame offsets: 
#        150
#        37044
#        74362
#        104288
#        138600
#        169979
#        200427
#        230342
#        256573
#        293553
#        318440
#
# Disc length: 4652 seconds
#
# Revision: 2
# Processed by: cddbd v1.5.2PL0 Copyright (c) Steve Scherf et al.
# Submitted via: ExactAudioCopy v1.3
#
DISCID=9c122a0b
DTITLE=Billy Ocean - Remixes And Rarities - CD 2
DYEAR=2019
DGENRE=R&B
TTITLE0=African Queen (No More Love On The Run) (New Extended Mix)
TTITLE1=American Hearts (12'' Version)
TTITLE2=Dance Floor (Extended Mix)
TTITLE3=When The Going Gets Tough, The Tough Gets Going (Club Mix)
TTITLE4=I Sleep Much Better (In Someone Elses Bed)
TTITLE5=Love Really Hurts Without You (Dub Mix)
TTITLE6=Bittersweet (Extended Version)
TTITLE7=Pick Up The Pieces (Put It Back)
TTITLE8=Loverboy (Club Remix)
TTITLE9=Get Outta My Dreams, Get Into My Car (Instrumental)
TTITLE10=When The Going Gets Tough, The Tough Get Going (The 7th Heave
TTITLE10=n Club Mix)
EXTD=
EXTT0=
EXTT1=
EXTT2=
EXTT3=
EXTT4=
EXTT5=
EXTT6=
EXTT7=
EXTT8=
EXTT9=
EXTT10=
PLAYORDER=
